<mxfile host="Electron" agent="Mozilla/5.0 (Macintosh; Intel Mac OS X 10_15_7) AppleWebKit/537.36 (KHTML, like Gecko) draw.io/25.0.2 Chrome/128.0.6613.186 Electron/32.2.5 Safari/537.36" version="25.0.2">
  <diagram name="Page-1" id="sACGFY9avKEEaU6WIu58">
    <mxGraphModel dx="2161" dy="856" grid="1" gridSize="10" guides="1" tooltips="1" connect="1" arrows="1" fold="1" page="1" pageScale="1" pageWidth="850" pageHeight="1100" math="0" shadow="0">
      <root>
        <mxCell id="0" />
        <mxCell id="1" parent="0" />
        <mxCell id="BVL4aWfITr0X4t9vTMms-4" value="Derivative based on &lt;b&gt;&lt;i&gt;X&lt;/i&gt;&lt;/b&gt;" style="edgeStyle=orthogonalEdgeStyle;rounded=0;orthogonalLoop=1;jettySize=auto;html=1;entryX=0;entryY=0.5;entryDx=0;entryDy=0;" parent="1" source="BVL4aWfITr0X4t9vTMms-2" target="BVL4aWfITr0X4t9vTMms-3" edge="1">
          <mxGeometry relative="1" as="geometry">
            <mxPoint x="-10" y="413" as="targetPoint" />
          </mxGeometry>
        </mxCell>
        <mxCell id="BVL4aWfITr0X4t9vTMms-6" value="Derivative based on &lt;b&gt;&lt;i&gt;Y&lt;/i&gt;&lt;/b&gt;" style="edgeStyle=orthogonalEdgeStyle;rounded=0;orthogonalLoop=1;jettySize=auto;html=1;entryX=0;entryY=0.5;entryDx=0;entryDy=0;" parent="1" source="BVL4aWfITr0X4t9vTMms-2" target="BVL4aWfITr0X4t9vTMms-5" edge="1">
          <mxGeometry relative="1" as="geometry" />
        </mxCell>
        <mxCell id="BVL4aWfITr0X4t9vTMms-2" value="function" style="shape=image;verticalLabelPosition=bottom;labelBackgroundColor=default;verticalAlign=top;aspect=fixed;imageAspect=0;image=data:image/png,iVBORw0KGgoAAAANSUhEUgAAAXgAAAByCAYAAABZccp0AAAMTmlDQ1BJQ0MgUHJvZmlsZQAASImVVwdYU8kWnltSSQgQiICU0JsgIiWAlBBaAOlFEJWQBAglxoSgYkcXFVy7iGBFV0FcdHUFZLFhVxbF7loWCwor6+K62JU3IYAu+8r35vvmzn//OfPPOefO3HsHAEaHQCbLRbUAyJPmy2NDAtiTklPYpC5AAyTABDqAIxAqZNzo6AgAy1D79/L6JkBU7TVHldY/+/9r0RaJFUIAkGiI00UKYR7EPwKANwtl8nwAiDLIW8zMl6nweoh15dBBiKtVOFONm1U4XY2vDNjEx/IgfgIAmSYQyDMB0OyFPLtAmAl1GDBa4CwVSaQQ+0Psm5c3XQTxQohtoQ2ck6HS56R/pZP5N830YU2BIHMYq2MZKORAiUKWK5j9f6bjf5e8XOXQHDaw0rLkobGqmGHenuRMD1dhGsRvpemRURDrAIDiEtGAvQqzspShCWp71Fao4MGcARbEExS5cfxBPlYkCAyH2AjiDGluZMSgTVGGJFhlA/OHlkvy+fEQ60NcLVYExQ3anJBPjx2a92aGnMcd5LsE8gEfVPqflTkJXLU+ppMl5g/qY06FWfFJEFMhDiyQJEZCrAlxpCInLnzQJrUwixc5ZCNXxqpisYRYLpaGBKj1sbIMeXDsoP3ePMVQ7NiJLAk/chBfzc+KD1XnCnsiFAz4D2PBesVSbsKQjlgxKWIoFpE4MEgdO04WSxPi1DyuL8sPiFWPxe1ludGD9niAODdExZtDHK8oiBsaW5APF6daHy+W5UfHq/3EK7IFYdFqf/ADIALwQCBgAyWs6WA6yAaStp6GHnin7gkGAiAHmUAMHAeZoRFJAz1SeI0DheB3iMRAMTwuYKBXDAog/2kEq+Ikw5z66ggyBvtUKjngKcR5IBzkwnvlgJJ02INE8AQykn94JIBVCGPIhVXV/+/5IfYLw4VMxCCjHJqRzRiyJAYRA4mhxGCiHW6I++LeeAS8+sPqgnNwz6E4vtgTnhLaCY8INwgdhDvTJEXyEV5OBB1QP3gwP+lf5we3hppueADuA9WhMs7CDYEj7grn4eJ+cGY3yPIG/VZlhT1C+28RfPWEBu0ozhSUMoriT7EdOVLTXtNtWEWV66/zo/Y1fTjfvOGekfPzvsq+CLbhIy2xZdgh7Bx2EruANWMNgI0dxxqxVuyoCg+vuCcDK25ottgBf3Kgzsg18+XJqjKpcK517nb+qO7LF8/KV21G3nTZbLkkMyufzYVfDDGbLxU6jWG7OLu4AqD6/qhfb69iBr4rCKv1C7f4VwB8jvf39//0hQs7DsAPHvCVcOQLZ8uBnxYNAM4fESrlBWoOV10I8M3BgLvPAJgAC2AL43EB7sAb+IMgEAaiQDxIBlOh91lwncvBTDAXLALFoBSsBhtABdgGdoJq8D04CBpAMzgJzoJL4Aq4Ae7C1dMJnoNe8Bp8QBCEhNARJmKAmCJWiAPignAQXyQIiUBikWQkDclEpIgSmYssRkqRtUgFsgOpQX5AjiAnkQtIO3IHeYh0I38i71EMpaG6qDFqjY5FOSgXDUfj0SloJjoDLUSXoCvRcrQK3YfWoyfRS+gNtAN9jvZhANPAWJgZ5ohxMB4WhaVgGZgcm4+VYGVYFVaHNcHnfA3rwHqwdzgRZ+Js3BGu4FA8ARfiM/D5+Aq8Aq/G6/HT+DX8Id6LfybQCUYEB4IXgU+YRMgkzCQUE8oIuwmHCWfgXuokvCYSiSyiDdED7sVkYjZxDnEFcQtxP/EEsZ34mNhHIpEMSA4kH1IUSUDKJxWTNpH2kY6TrpI6SW/JGmRTsgs5mJxClpKLyGXkveRj5KvkZ+QPFC2KFcWLEkURUWZTVlF2UZoolymdlA9UbaoN1YcaT82mLqKWU+uoZ6j3qK80NDTMNTw1YjQkGgs1yjUOaJzXeKjxjqZDs6fxaKk0JW0lbQ/tBO0O7RWdTrem+9NT6Pn0lfQa+in6A/pbTaamkyZfU6S5QLNSs17zquYLBoVhxeAypjIKGWWMQ4zLjB4tipa1Fk9LoDVfq1LriNYtrT5tpvY47SjtPO0V2nu1L2h36ZB0rHWCdEQ6S3R26pzSeczEmBZMHlPIXMzcxTzD7NQl6tro8nWzdUt1v9dt0+3V09Fz1UvUm6VXqXdUr4OFsaxZfFYuaxXrIOsm6/0o41HcUeJRy0fVjbo66o3+aH1/fbF+if5+/Rv67w3YBkEGOQZrDBoM7hvihvaGMYYzDbcanjHsGa072nu0cHTJ6IOjfzFCjeyNYo3mGO00ajXqMzYxDjGWGW8yPmXcY8Iy8TfJNllvcsyk25Rp6msqMV1vetz0N7Yem8vOZZezT7N7zYzMQs2UZjvM2sw+mNuYJ5gXme83v29BteBYZFist2ix6LU0tZxoOdey1vIXK4oVxyrLaqPVOas31jbWSdZLrRusu2z0bfg2hTa1Nvds6bZ+tjNsq2yv2xHtOHY5dlvsrtij9m72WfaV9pcdUAd3B4nDFof2MYQxnmOkY6rG3HKkOXIdCxxrHR86sZwinIqcGpxejLUcmzJ2zdhzYz87uznnOu9yvjtOZ1zYuKJxTeP+dLF3EbpUulwfTx8fPH7B+MbxL10dXMWuW11vuzHdJrotdWtx++Tu4S53r3Pv9rD0SPPY7HGLo8uJ5qzgnPckeAZ4LvBs9nzn5e6V73XQ6w9vR+8c773eXRNsJogn7Jrw2MfcR+Czw6fDl+2b5rvdt8PPzE/gV+X3yN/CX+S/2/8Z146bzd3HfRHgHCAPOBzwhufFm8c7EYgFhgSWBLYF6QQlBFUEPQg2D84Mrg3uDXELmRNyIpQQGh66JvQW35gv5Nfwe8M8wuaFnQ6nhceFV4Q/irCPkEc0TUQnhk1cN/FepFWkNLIhCkTxo9ZF3Y+2iZ4R/VMMMSY6pjLmaey42Lmx5+KYcdPi9sa9jg+IXxV/N8E2QZnQkshITE2sSXyTFJi0Nqlj0thJ8yZdSjZMliQ3ppBSElN2p/RNDpq8YXJnqltqcerNKTZTZk25MNVwau7Uo9MY0wTTDqUR0pLS9qZ9FEQJqgR96fz0zem9Qp5wo/C5yF+0XtQt9hGvFT/L8MlYm9GV6ZO5LrM7yy+rLKtHwpNUSF5mh2Zvy36TE5WzJ6c/Nyl3fx45Ly3viFRHmiM9Pd1k+qzp7TIHWbGsY4bXjA0zeuXh8t0KRDFF0ZivC3/0W5W2ym+UDwt8CyoL3s5MnHlolvYs6azW2fazl89+Vhhc+N0cfI5wTstcs7mL5j6cx523Yz4yP31+ywKLBUsWdC4MWVi9iLooZ9HPRc5Fa4v+Wpy0uGmJ8ZKFSx5/E/JNbbFmsbz41lLvpduW4csky9qWj1++afnnElHJxVLn0rLSjyuEKy5+O+7b8m/7V2asbFvlvmrrauJq6eqba/zWVK/VXlu49vG6ievq17PXl6z/a8O0DRfKXMu2baRuVG7sKI8ob9xkuWn1po8VWRU3KgMq92822rx885stoi1Xt/pvrdtmvK102/vtku23d4TsqK+yrirbSdxZsPPprsRd577jfFez23B36e5Pe6R7Oqpjq0/XeNTU7DXau6oWrVXWdu9L3Xfl+8DvG+sc63bsZ+0vPQAOKA/89kPaDzcPhh9sOcQ5VPej1Y+bDzMPl9Qj9bPrexuyGjoakxvbj4QdaWnybjr8k9NPe5rNmiuP6h1ddYx6bMmx/uOFx/tOyE70nMw8+bhlWsvdU5NOXT8dc7rtTPiZ82eDz546xz13/LzP+eYLXheOXORcbLjkfqm+1a318M9uPx9uc2+rv+xxufGK55Wm9gntx676XT15LfDa2ev865duRN5ov5lw8/at1Fsdt0W3u+7k3nn5S8EvH+4uvEe4V3Jf637ZA6MHVb/a/bq/w73j6MPAh62P4h7dfSx8/PyJ4snHziVP6U/Lnpk+q+ly6WruDu6+8tvk3zqfy55/6Cn+Xfv3zS9sX/z4h/8frb2Tejtfyl/2/7nilcGrPX+5/tXSF9334HXe6w9vSt4avK1+x3l37n3S+2cfZn4kfSz/ZPep6XP453v9ef39MoFcMPArgAHV0SYDgD/3AEBPBoAJz43Uyerz4UBB1GfaAQT+E1afIQeKOwB18J8+pgf+3dwC4MAuAKyhPiMVgGg6APGeAB0/frgOneUGzp2qQoRng+3Rn9Lz0sG/Keoz6Vd+j2yBStUVjGz/BXX2gyJjdupyAAAAimVYSWZNTQAqAAAACAAEARoABQAAAAEAAAA+ARsABQAAAAEAAABGASgAAwAAAAEAAgAAh2kABAAAAAEAAABOAAAAAAAAAJAAAAABAAAAkAAAAAEAA5KGAAcAAAASAAAAeKACAAQAAAABAAABeKADAAQAAAABAAAAcgAAAABBU0NJSQAAAFNjcmVlbnNob3RdBjafAAAACXBIWXMAABYlAAAWJQFJUiTwAAAB1mlUWHRYTUw6Y29tLmFkb2JlLnhtcAAAAAAAPHg6eG1wbWV0YSB4bWxuczp4PSJhZG9iZTpuczptZXRhLyIgeDp4bXB0az0iWE1QIENvcmUgNi4wLjAiPgogICA8cmRmOlJERiB4bWxuczpyZGY9Imh0dHA6Ly93d3cudzMub3JnLzE5OTkvMDIvMjItcmRmLXN5bnRheC1ucyMiPgogICAgICA8cmRmOkRlc2NyaXB0aW9uIHJkZjphYm91dD0iIgogICAgICAgICAgICB4bWxuczpleGlmPSJodHRwOi8vbnMuYWRvYmUuY29tL2V4aWYvMS4wLyI+CiAgICAgICAgIDxleGlmOlBpeGVsWURpbWVuc2lvbj4xMTQ8L2V4aWY6UGl4ZWxZRGltZW5zaW9uPgogICAgICAgICA8ZXhpZjpQaXhlbFhEaW1lbnNpb24+Mzc2PC9leGlmOlBpeGVsWERpbWVuc2lvbj4KICAgICAgICAgPGV4aWY6VXNlckNvbW1lbnQ+U2NyZWVuc2hvdDwvZXhpZjpVc2VyQ29tbWVudD4KICAgICAgPC9yZGY6RGVzY3JpcHRpb24+CiAgIDwvcmRmOlJERj4KPC94OnhtcG1ldGE+CrpnT7kAAAAcaURPVAAAAAIAAAAAAAAAOQAAACgAAAA5AAAAOQAACNLt7g3BAAAInklEQVR4AeybeXBNdxTHT+xDxGSQv6IS+xKxJkKpLRKxjNiiSESNljC1M5ZYWrW0UwlaW6mUIAipmFgqIbEmqJmI0kTsYu0fhhGGGOk5v3FN3tNowkty8/M9M+Hd9+793XM+57zv/W3PzsHRKZdgIAACIAAC2hGwg8Brl1MEBAIgAAKKAAQehQACIAACmhKAwGuaWIQFAiAAAhB41AAIgAAIaEoAAq9pYhEWCIAACEDgUQMgAAIgoCkBCLymiUVYIAACIACBRw2AAAiAgKYEIPCaJhZhgQAIgAAEHjUAAiAAApoSgMBrmliEBQIgAAIQeNQACIAACGhKAAKvaWIRFgiAAAhA4FEDIAACIKApAQi8polFWCAAAiAAgUcNgAAIgICmBCDwmiYWYYEACIAABB41AAIgAAKaEoDAa5pYhAUCIAACEHjUAAiAAAhoSgACr2liERYIgAAIQOBRAyAAAiCgKQEIvKaJRVggAAIgAIFHDYAACICApgQg8JomFmGBAAiAAAQeNQACIAACmhKAwGuaWIQFAiAAAhB41AAIgAAIaEoAAq9pYhEWCIAACEDgUQMgAAIgoCkBCLymiUVYIAACIACBRw2AAAiAgKYEIPCaJhZhgQAIgAAEHjUAAiAAApoSgMBrmliEBQIgAAIQeNQACIAACGhKAAKvaWIRFgiAAAhA4FEDIAACIKApAQi8polFWCAAAiAAgUcNgAAIgICmBCDwmiYWYYEACIAABB41AAIgAAKaEoDAa5pYhAUCIAACEHjUAAiAAAhoSgACr2liERYIgAAIQOBRAyBQAgTKlClDoXPnkn/fvmRftSrdvXuX4g8epO8WLCgBb3BLXQlA4HXNLOIyNYFly5fTgIED6enTp1SpUiUSwRc7feoUDejf39S+w7nSQwACb+JcVeWeXavWrZWHJ44fp5cvX77T2969e9PS8HAKHDaMzpw+/c5zzfLhH/HxlP3kCQUFBlJ2drZZ3CpSP9ybN6fYPXsogAX+zJkzVLZsWVq8ZAkNGTpU3deDc37v3r0i9cGWjdui7ipUqEDnzp+n7du20fx582zp3kfdFgTehOmvUqUK7YyJITc3tzfe5ebm0pLFi2nVypVv3jNeiED8sm4d+fj60hMWS18fH7p544bxsan/X8TCFhQURM+ePaMvR42iI0lJpvbXFs5Jz71cuXJKzIz2ROAyr1xRPflv58+ndZxPs5st607aik9IoPoNGtCtmzdpEDO6ffu22RGY3j8IvAlTlHjkCNWrV48uZ2ZScHAwJfFx+fLl1XC+Yf36Fh6LMKTwsL6mkxM9ePCAvLt2pYcPH1qcY/aDMSEhNDs0VLk5a8YMioyMNLvLReLfjVu3lMCHjB5NcXFxH3SP8RMm0MRJk+j58+dqnj8jPf2D2rO+uKjqbvOWLdSpc2c1Wu3erRtdvnzZ+tY4LgQBCHwhYBXHqQsXLaLhLOrSY2/WtCk9evSI9vCXvWXLluq1W5MmFm7s4p6+Z9u2dOfOHfq0Xbv/ncaxuNhEB/0HDKDlK1aouHv36kVp586ZyLuid6Vzly4UuXkz5eTkUCPuxb548eKDbvp3RgbZ29urNjZt3EizZ836oPasLy7Kulu9di3JtM/jx4+pTatWanRnfX8cF4wABL5gnIrtrAzutVeuXJnSucclPRixatWqUfCIEbRv716LHs2kyZNp8pQpShS7cq+ntPd2onfuJC9+SMnCo2ebNuqBVmzgS/hGUdu3U4cOHegbnp5Zb4PpmWQe1Tk7O6uoJowfTzG7dtkswqKuO5mu+evCBbW76OLFi+TbvbvNfP/YGoLAmyjjMjSVIarYr+vXv3OxycXFhY7ywqudnR1Fbd1K06dNM1Ek7+eKPMhS09LU/PSxo0dp6JAh79dQKbtq9JgxFDpnjk3zWKNmTZo6dSolJydT7O7dNiNSXHXXlacaN76eqps1cyZFbtpksxg+poYg8CbKdhjvgBkUEKA8kl0lSYmJ+XpnDGNlZ01dV1d69epVvueWpg8Wf/89BXLsEk8DXoeQOWSd7bNOndRDPSUlRe2qMXusxVl30oFx5drOysqidjwNCSs8AQh84ZnZ9ApHR0eazguLYn369FHTMfI6OjpaiVsC//jl0KFD8paFXbl2jWSh6wIPZXvwrpn8zMPTk7y8vMi1Th2qxUN2uV8IL2pmXrr05hLpOYcvW0bN3N3Vl+lzfsgUVlg9PDzIv18/qlGjhvpz4DZl7te65xXB74k/UVFRJLtFrK1ho0aU8Dren3hO/gcWfLPaJ7Vrkw+zr1O3Lrnwa1nojtiwgba+HoWJ38YPmnrwDidhOmniREpNTVUhtWjRgn6PjaU0HrX04x88GQ9p6dGvXbPmrbDbt29PMj3iwqKXw3P0169fpx07dtAU7qnLHLtsjZWRgJEDyXU6z8WP5fbEGjduTF+MHKn8rF69Ojk4ONBvERHqTz53Yv9lKtDPz49yuOOwaOHCt3Y1FaTuZJdQWxZkGUXIfaryWoDUXN6FXvlx1/4DB1Q9TmP/9+/bJy5Y2EyOaey4ceo9b56uzHu9xYk4yJcABD5fNMXzgbG4lt/d/muqQnr50tsXEwEUIczPjp04QbVZfGQqx7CrV69Sp44d1aF80f48e5Zka6Zhk1mE5AFTGJvBw2gRD1k/MEx287jn2eopc6vXeQucYeKD+GJtxjqE9fXW55X08Y9Ll1LA4MEWbGWRVBbHjT39cbxu0pyF3LB43vc/kkXUEPfkkyctpqK+5vnyCcy/Hj+Q89pXvLNmDv/yVewf3i2VxVsIpQ0jrz7e3nT//n31cKzOD1njh1MiiiKOYlJr4Vw38rlxXRjHEB4WRn49e9Kq1avV9Jg6mf+RB1JePwpadzE8JeTOnYWKFSsaTanRqIxKDevr708/v97ya30f4xznWrUomUc2YomHD9Nw3k4LKxyBfwEAAP//T7CgIwAAEUZJREFU7V0HuBS1Fg5iF1H0ARZ6r9JEAaWJFAtFkA4+lCoIKlIFwSdIV1GKdJAqICAdRKWDdJDeUcACz4Kg2PH8eZs1d+/s7uy9d+5cH//5PtjZJJPJ/sn8OTnnJDdV2nQZLimKbwhceeWVKmPGjCq1fK7fsEG349tvv1UPV6umr8/98IO6cP58nPZNmDhRVa5SRacVKVxYoXw0KVe+vJr0zjvqqquu0kUryvcjR46o5StWqAIFCgRv//3331XJu+9W/z17NpgWy0XuPHnUhx99pK644gp9W+lSpdSpkyeDVaxas0blzJlTf3+5d281fty4YJ65mDtvnip5zz36a+Y77zTJET9vv/121bZdu4hlomUCj3cmTYpWLF5+psyZ1fwFC1SGDBl03ptDh6ohgwer7i++GK9NHZ97Th0+fFjNmz9foe/PnTunUqVKpe+75pprFP4dkfyKFSrEec7R48fV1VdfrdYKfo0aNtR5ZcqUUTNnz9bXWaUNf/75p75u0bKl6v3yy/p6xvTpqkvnzvra/Pe+tLVEiRL6K8ZBhYoVg+W///57dfPNN5uiKn++fMHxF+u4a/rEE6pf//66rosXL6o8uXIF68VvP3z0qMYAiflk3Pz444/BfHNx4NAhdcMNN6gzZ86oEsWKmWR+ukQgFQneJVIeFwOhgdggW7duVY/VrBn2ics++EAVLFhQXbp0SWXJlClsudCMNk8/rXr07KmTZ8+apfbs2aP+88oravHixapNq1Yql7yAJ4WMf/nll9BbY/q+ctUqlSt3bn1Pzx494pDmnULYGz75RE8ADerVU+vXr49X94iRI1WNwO8vU7q0Ovn55/HKhCaApKZMnRqaHNN3/O5cOXLEdI8pnC1bNrU28FswoTVs0ECtWbdOffnll6pCuXLqxhtvVH/88Yf65ptv1AqZAPMJcYaTOe+9p5579tlg9i233KJ27d6tv6PfOj7/fDAPz7jtttvikOeAgQNV4yZNdJkWzZur5cuWBcvjYuOmTSqTjJvffvtN1a5VSy1YtEiPpRZPPaVWyIS/e+/eIMnbE2xCxt3xzz4LS+J1pf9ff+MNPTFhgnKSLdu26d+XmL5xqvdySSPBp5Cebt+hg+rStatuzWTRtHuI9hdOtu3YobVFvKA5hFjcSurUqdWRY8f0C3dWNKK0N92kzssKoVjRom6rcFUOWhu0N8hs0TChtdqy/+BBrZXlFk3eaTLpJdpnS9FCIa3kc+mSJfbtjtf33HuvmvHuu455bhO/++47dXfx4m6LxysHss2ePbsmy0PyG7GaKSUTN0g+MQLNHf0GTR+Tep3HHlNbtmzRVWIyLCSruPJlywYfYU8gmLBCMTake1xWBenTp9d90bJFi+BEgGdhJRGqdSdk3K1eu1blCEyaTWXSWbVyZbCdN8n427Nvn/r666/D4o7VYF6ZDGNVZoIPucwvSPApZACMnzBBValaVbem/TPPqPcD2rxT88wLeOHCBZU/b16nImHT5i9cqIpbJFarRg21TbSkpJSaohUOHzFCV4lVwkOB34WE8mJ6mDptmlonZNiwfn3Hx7Zu00b1fOklnffakCFqqGh5/wSxJ2m0d6Rg0L9fvyRpupk8UBnMaNUfeUSvwJwqN+PjB5m8C+bPH6cIJp2PAyQL4geR95FV3JjRo3W5zFmyqA0bN+rr3bJqMKZCJJh6Yxl3Y8UEV+2hh3R9w956Sw2S1YWRIa+9purLSuclWVVOErOjk8yZO1dh8oZgsjx9+rRTMaaFQYAEHwaY5E62NR1o1JFs4MdOnNC2dNhLC4upJhbB0h1LeMhmWarXqV07lttdlf2XaIU7du7UZUPbaLRA4wNwqrBp06aq34ABOispSdLpWUmZZjRS1BkLCbppA0xbMAEZHwpIvppMnAcPHIhz+6233qp2fvqpTtshK70ajz4aJ7+DmH46d+kSTNsr5phqAX8OEp/v2FF1fOEFnR9KyAkZd/CLwBcBWS2muyaNG+trjJFt27ern376KaKSMk18CPAfQR4QM9xhsclT3CNAgnePlaclD4pj7frrr9faWfasWSM+a+/+/Spt2rTxltARbwpkVqpUSU2aPFl/wxK93P33u7kt5jLGDADHn7GvgjhAIIvE5vt069Zh6zTlUKB3r15qwvjxYcumpAwQ/KeyYoGDGQScU8w1xvGZFO2EqWLJ0qXa2Yr64HwvLo5HmFKM2JPjqLffVq/27Wuy9CecsnDOQtBGmKTgFzCC+gvfdZf+GjoJJ2TcFZP2wcYPgS8FPhXIIvH7FBFFpq34hRaK0zecmHLID+eIDXcv05UiwaeAUYCIAhAiBLZxvLSRxCzXbfKMVN7kYTkOZx2iEiCwa+YVZ6hNEKZsYj+3i/aYPhBVgpcaz9gizmM4GgsIUf36669hH2E7CevXras2BKKLwt4gGXA6jxw1KlKRqHlHJarjqWbNopYLV2ChkFZRy58RjbzC1RMpPb+YXJaI0xRjBrJWbNyNxMxhZJxMhlUDEVi1YavfvNlk6U/0P5y2EJhlYJ6xxZhh0D+YoGxJyLiD3+dEwEluHKWPyqribXl26OrBfpa5xqoFDuxYx7q5/3L/JMGngBEQSwQNmmtrYXaUQ7SfYpa7cHzWFeKEQMODppfUYoc6gjTbi2kA2lwn0eJnRnGG2v6IQhLCiVDCaOJ3FM2/5Tf2ffVVNXfOHFW7Th3dXJArSDYx0lycn5UefDAOiVeuXFlNmDRJV2tI0zxjkzhf77jjDj15ZxN7ur2CANlCkYCzFgSOsEVMuEYQRbVy9Wr91Yl8EzruTKgjFAoEBWAlcO2116oyEkIbzaYOUx/MOUlt8jK/+f/9kwSfAnrYds5Fi6BBc/uLDb1JIAzOSUtz+kkNJHZ6sDgsoQ0jHG5fwHb71VdfqZKBmGg4N6+77rqgUxP3ILTymGi2ffv0UcckusKtvCLln5TnQFZIWCfi9g/IMyuLiSiaJERThPNwkMSeJ0bOSDRHawkXjVWgYYIYYU+GTwRmGphrQK6YoM6LKQVx57BHNw9g4vYZINVSQoTGzGXuOyQx++grCPoP/QgxpjH4cODLuatIER3+iokHtmxM8hAn+3y37t1VO3HwQ4zvA/b6ieIARX0JGXeoyw6bRcgmVhijZbWFMRVJYOpC/D9WKyfE71T2vvsiFWeeAwIkeAdQkjvJ3kDiZllva1rzJMqgQ/v28ZqMzTdvSPTJzz//rMP0QNawuRaTFx4asb1UnyI2eZhQWoldfIFswGnXtq0mD/gFzCacWDeaVJfonJHWysDJ3huv0ZKAlxnOPDx3uzjhalav7lTM1zQQzwj5bRnFBAVNt55EA8F/YsIAJ0qY64OidUMQRYQVSy/Z1HVWSPLekiVjarvRyLtJCO00K84f4YWYRCDw2QBfhCPCWQ+BqW/MmDGqa7duemNVFWlPH1mtNXvySZ0/fNgwNTDgyNYJ8p9tYsKz8kiEVklpb+NGjdQamcDcjDtTl/05StrxiET9GDl16pQqHYiMMWlOn4gqw2oOgugbOH0psSFAgo8NL09KG40VlcM+DY0vmmDXaxZ5sY2mFloeNk7YOm2B9vjB8uU6yY41N2W++OKLIAHZkTAm323bUN6O5sD3rqIJTpfwyGhS5/HH1dA339TFEHGByIuUJsaGbLfr3RkzVOdOnXQStObFIbH7IGCYJGKNiTc7WLHnAeYtxL9jZWT2CdhhqLbpxrQNpg3sTIZDdqn0faFChXQWImcwOdliR3KZdBA9Jhcj0cadKWd/2mGvWNWUFcf+5wGfk10u9NooPrgHeyYi+W1C7+X3/yFAgk8BI8Est7HEh9PTjTQS8hs4aJAuCu1sv9g1bQEBgMQhsH2+JaSJ7fNGoP2tl3hnowVCq6ouE4IdnolQxeqiQZut67FGMRhzQbSduaZN+DQkBELCNvmUKDDJYFI2q5uNgmM9mZhsQeQIfA4Q2MmfEJOaG2exXQc2OIHgMS6wQggVxKk3Ee3aHFWRRnbL7pYVg3HAIh2bonAEA8REwWCycYrU6iRHGjxrbUpbKHsm2orZzpZo484ua67heMbqAOJWE8dvgBkRZijgBmc7JXYESPCxY5akd+Cl3B+wh38iRFE3hCgiPcy8sLbmbZeHJplVtPx1smzHLk0ngSkFNvZQbc6UhWMOJhOQlH2WiMkP92k2NMH0A7OQ0zkjofc+LMv40bKch4SaJELL+v0dcekIN9wkjtRw2iic54hYgnnDdna6bTuinqCtjxVMQPDFxdaeRxSA07LSwlgxxG7XhwiZig88oOPjod3HKvhd98uuWPhNnOpHfdHGXegzje1+n5iVqoqD2I0MGz5c1ZLJCbghXDMW/4+b+i+XMiR4n3saO/mwow/idG5IpObZB3u51Ywi1eeUBzs6JoGpslTvbi3VncqaNJDadol+sO3SJi/cJzQ2EAfuWSax2Ng6T0mZCMQy7jDJYTcqVg04LCycomH/UpiREAqKFRLO3cH5O5SEIUCCTxhuCb4LG42wYQVRBAhRmzxlita4Yj1XxjTAHAsATaedRLxgE1FSCAgXMcg4lMop4sJ+Bl54vLjGvIOXs7CcjzJr5kz1gmxsiiYwRSwWUscBXFiNwAGXEI032nOYn3QIhBt3cMru2rVL28uxOt0qx2BgwnervMD8BTNdmjRpgg7/pGv15VcTCT4Z+xwnCprwRNjEXxfNHRtLQKYD5ICuEbIsTYggzBLhbNB4kjKuHXbk2ULSU2QSCicmWgZ2/mZywBjMLFiVwGxxX2DHZLh7kQ6TAg7HwlG7OIURNn8zUUS6j3n+IxA67mASRP/BLIfDz2bJqZggbNsBHanV0PZniraO4xg+kjGB8URJHAIk+MThF9PdOLN8s+zmhMCmuF4cdTh1EU4w2BkTI9jJOV3C8UCYiOVeEnBqJaZON/eGOuZwD8IwcQRCOBuuXa85DhaHTeHQKco/CwF73H0mkzp8PrbgIDscaBdNoOVD+cGqFmaZSIftRauL+X8jQIL/G4tkubKjK/BAmCRwMiDizBMrcIj2kFMYB0vMMLSo5JB06dKpDz/+OPjHLjBZ4YV2s/sU7cPhZzha1xx/mxxt5jOSFgEz7vDHSHB6JJzDMLHBUQvTjFtBzP64sWPjnI3j9l6Wc0aABO+Mi6ep2NVYVBxO20Sb3xk4ddHTByZD5dhYdVHC+eyDq5LhsXxECkQA5+XgXB/GrfvfOSR4//uALSACRIAIeIIACd4TWFkpESACRMB/BEjw/vcBW0AEiAAR8AQBErwnsLJSIkAEiID/CJDg/e8DtoAIEAEi4AkCJHhPYGWlRIAIEAH/ESDB+98HbAERIAJEwBMESPCewMpKiQARIAL+I0CC978P2AIiQASIgCcIkOA9gZWVEgEiQAT8R4AE738fsAVEgAgQAU8QIMF7AisrJQJEgAj4jwAJ3v8+YAuIABEgAp4gQIL3BFZWSgSIABHwHwESvP99wBYQASJABDxBgATvCayslAgQASLgPwIkeP/7gC0gAkSACHiCAAneE1hZKREgAkTAfwRI8P73AVtABIgAEfAEARK8J7CyUiJABIiA/wiQ4P3vA7aACBABIuAJAiR4T2BlpUSACBAB/xEgwfvfB2wBESACRMATBEjwnsDKSokAESAC/iNAgve/D9gCIkAEiIAnCJDgPYGVlRIBIkAE/EeABO9/H7AFRIAIEAFPECDBewIrKyUCRIAI+I8ACd7/PmALiAARIAKeIECC9wRWVkoEiAAR8B8BErz/fcAWEAEiQAQ8QYAE7wmsrJQIEAEi4D8CJHj/+4AtIAJEgAh4ggAJ3hNYWSkRIAJEwH8ESPD+9wFbQASIABHwBAESvCewslIiQASIgP8IkOD97wO2gAgQASLgCQIkeE9gZaVEgAgQAf8R+AuYlgUxhdo0VAAAAABJRU5ErkJggg==;" parent="1" vertex="1">
          <mxGeometry x="-620" y="484" width="376" height="114" as="geometry" />
        </mxCell>
        <mxCell id="BVL4aWfITr0X4t9vTMms-3" value="" style="shape=image;verticalLabelPosition=bottom;labelBackgroundColor=default;verticalAlign=top;aspect=fixed;imageAspect=0;image=data:image/png,iVBORw0KGgoAAAANSUhEUgAAARgAAABwCAYAAADFXm8PAAAMTmlDQ1BJQ0MgUHJvZmlsZQAASImVVwdYU8kWnltSSQgQiICU0JsgIiWAlBBaAOlFEJWQBAglxoSgYkcXFVy7iGBFV0FcdHUFZLFhVxbF7loWCwor6+K62JU3IYAu+8r35vvmzn//OfPPOefO3HsHAEaHQCbLRbUAyJPmy2NDAtiTklPYpC5AAyTABDqAIxAqZNzo6AgAy1D79/L6JkBU7TVHldY/+/9r0RaJFUIAkGiI00UKYR7EPwKANwtl8nwAiDLIW8zMl6nweoh15dBBiKtVOFONm1U4XY2vDNjEx/IgfgIAmSYQyDMB0OyFPLtAmAl1GDBa4CwVSaQQ+0Psm5c3XQTxQohtoQ2ck6HS56R/pZP5N830YU2BIHMYq2MZKORAiUKWK5j9f6bjf5e8XOXQHDaw0rLkobGqmGHenuRMD1dhGsRvpemRURDrAIDiEtGAvQqzspShCWp71Fao4MGcARbEExS5cfxBPlYkCAyH2AjiDGluZMSgTVGGJFhlA/OHlkvy+fEQ60NcLVYExQ3anJBPjx2a92aGnMcd5LsE8gEfVPqflTkJXLU+ppMl5g/qY06FWfFJEFMhDiyQJEZCrAlxpCInLnzQJrUwixc5ZCNXxqpisYRYLpaGBKj1sbIMeXDsoP3ePMVQ7NiJLAk/chBfzc+KD1XnCnsiFAz4D2PBesVSbsKQjlgxKWIoFpE4MEgdO04WSxPi1DyuL8sPiFWPxe1ludGD9niAODdExZtDHK8oiBsaW5APF6daHy+W5UfHq/3EK7IFYdFqf/ADIALwQCBgAyWs6WA6yAaStp6GHnin7gkGAiAHmUAMHAeZoRFJAz1SeI0DheB3iMRAMTwuYKBXDAog/2kEq+Ikw5z66ggyBvtUKjngKcR5IBzkwnvlgJJ02INE8AQykn94JIBVCGPIhVXV/+/5IfYLw4VMxCCjHJqRzRiyJAYRA4mhxGCiHW6I++LeeAS8+sPqgnNwz6E4vtgTnhLaCY8INwgdhDvTJEXyEV5OBB1QP3gwP+lf5we3hppueADuA9WhMs7CDYEj7grn4eJ+cGY3yPIG/VZlhT1C+28RfPWEBu0ozhSUMoriT7EdOVLTXtNtWEWV66/zo/Y1fTjfvOGekfPzvsq+CLbhIy2xZdgh7Bx2EruANWMNgI0dxxqxVuyoCg+vuCcDK25ottgBf3Kgzsg18+XJqjKpcK517nb+qO7LF8/KV21G3nTZbLkkMyufzYVfDDGbLxU6jWG7OLu4AqD6/qhfb69iBr4rCKv1C7f4VwB8jvf39//0hQs7DsAPHvCVcOQLZ8uBnxYNAM4fESrlBWoOV10I8M3BgLvPAJgAC2AL43EB7sAb+IMgEAaiQDxIBlOh91lwncvBTDAXLALFoBSsBhtABdgGdoJq8D04CBpAMzgJzoJL4Aq4Ae7C1dMJnoNe8Bp8QBCEhNARJmKAmCJWiAPignAQXyQIiUBikWQkDclEpIgSmYssRkqRtUgFsgOpQX5AjiAnkQtIO3IHeYh0I38i71EMpaG6qDFqjY5FOSgXDUfj0SloJjoDLUSXoCvRcrQK3YfWoyfRS+gNtAN9jvZhANPAWJgZ5ohxMB4WhaVgGZgcm4+VYGVYFVaHNcHnfA3rwHqwdzgRZ+Js3BGu4FA8ARfiM/D5+Aq8Aq/G6/HT+DX8Id6LfybQCUYEB4IXgU+YRMgkzCQUE8oIuwmHCWfgXuokvCYSiSyiDdED7sVkYjZxDnEFcQtxP/EEsZ34mNhHIpEMSA4kH1IUSUDKJxWTNpH2kY6TrpI6SW/JGmRTsgs5mJxClpKLyGXkveRj5KvkZ+QPFC2KFcWLEkURUWZTVlF2UZoolymdlA9UbaoN1YcaT82mLqKWU+uoZ6j3qK80NDTMNTw1YjQkGgs1yjUOaJzXeKjxjqZDs6fxaKk0JW0lbQ/tBO0O7RWdTrem+9NT6Pn0lfQa+in6A/pbTaamkyZfU6S5QLNSs17zquYLBoVhxeAypjIKGWWMQ4zLjB4tipa1Fk9LoDVfq1LriNYtrT5tpvY47SjtPO0V2nu1L2h36ZB0rHWCdEQ6S3R26pzSeczEmBZMHlPIXMzcxTzD7NQl6tro8nWzdUt1v9dt0+3V09Fz1UvUm6VXqXdUr4OFsaxZfFYuaxXrIOsm6/0o41HcUeJRy0fVjbo66o3+aH1/fbF+if5+/Rv67w3YBkEGOQZrDBoM7hvihvaGMYYzDbcanjHsGa072nu0cHTJ6IOjfzFCjeyNYo3mGO00ajXqMzYxDjGWGW8yPmXcY8Iy8TfJNllvcsyk25Rp6msqMV1vetz0N7Yem8vOZZezT7N7zYzMQs2UZjvM2sw+mNuYJ5gXme83v29BteBYZFist2ix6LU0tZxoOdey1vIXK4oVxyrLaqPVOas31jbWSdZLrRusu2z0bfg2hTa1Nvds6bZ+tjNsq2yv2xHtOHY5dlvsrtij9m72WfaV9pcdUAd3B4nDFof2MYQxnmOkY6rG3HKkOXIdCxxrHR86sZwinIqcGpxejLUcmzJ2zdhzYz87uznnOu9yvjtOZ1zYuKJxTeP+dLF3EbpUulwfTx8fPH7B+MbxL10dXMWuW11vuzHdJrotdWtx++Tu4S53r3Pv9rD0SPPY7HGLo8uJ5qzgnPckeAZ4LvBs9nzn5e6V73XQ6w9vR+8c773eXRNsJogn7Jrw2MfcR+Czw6fDl+2b5rvdt8PPzE/gV+X3yN/CX+S/2/8Z146bzd3HfRHgHCAPOBzwhufFm8c7EYgFhgSWBLYF6QQlBFUEPQg2D84Mrg3uDXELmRNyIpQQGh66JvQW35gv5Nfwe8M8wuaFnQ6nhceFV4Q/irCPkEc0TUQnhk1cN/FepFWkNLIhCkTxo9ZF3Y+2iZ4R/VMMMSY6pjLmaey42Lmx5+KYcdPi9sa9jg+IXxV/N8E2QZnQkshITE2sSXyTFJi0Nqlj0thJ8yZdSjZMliQ3ppBSElN2p/RNDpq8YXJnqltqcerNKTZTZk25MNVwau7Uo9MY0wTTDqUR0pLS9qZ9FEQJqgR96fz0zem9Qp5wo/C5yF+0XtQt9hGvFT/L8MlYm9GV6ZO5LrM7yy+rLKtHwpNUSF5mh2Zvy36TE5WzJ6c/Nyl3fx45Ly3viFRHmiM9Pd1k+qzp7TIHWbGsY4bXjA0zeuXh8t0KRDFF0ZivC3/0W5W2ym+UDwt8CyoL3s5MnHlolvYs6azW2fazl89+Vhhc+N0cfI5wTstcs7mL5j6cx523Yz4yP31+ywKLBUsWdC4MWVi9iLooZ9HPRc5Fa4v+Wpy0uGmJ8ZKFSx5/E/JNbbFmsbz41lLvpduW4csky9qWj1++afnnElHJxVLn0rLSjyuEKy5+O+7b8m/7V2asbFvlvmrrauJq6eqba/zWVK/VXlu49vG6ievq17PXl6z/a8O0DRfKXMu2baRuVG7sKI8ob9xkuWn1po8VWRU3KgMq92822rx885stoi1Xt/pvrdtmvK102/vtku23d4TsqK+yrirbSdxZsPPprsRd577jfFez23B36e5Pe6R7Oqpjq0/XeNTU7DXau6oWrVXWdu9L3Xfl+8DvG+sc63bsZ+0vPQAOKA/89kPaDzcPhh9sOcQ5VPej1Y+bDzMPl9Qj9bPrexuyGjoakxvbj4QdaWnybjr8k9NPe5rNmiuP6h1ddYx6bMmx/uOFx/tOyE70nMw8+bhlWsvdU5NOXT8dc7rtTPiZ82eDz546xz13/LzP+eYLXheOXORcbLjkfqm+1a318M9uPx9uc2+rv+xxufGK55Wm9gntx676XT15LfDa2ev865duRN5ov5lw8/at1Fsdt0W3u+7k3nn5S8EvH+4uvEe4V3Jf637ZA6MHVb/a/bq/w73j6MPAh62P4h7dfSx8/PyJ4snHziVP6U/Lnpk+q+ly6WruDu6+8tvk3zqfy55/6Cn+Xfv3zS9sX/z4h/8frb2Tejtfyl/2/7nilcGrPX+5/tXSF9334HXe6w9vSt4avK1+x3l37n3S+2cfZn4kfSz/ZPep6XP453v9ef39MoFcMPArgAHV0SYDgD/3AEBPBoAJz43Uyerz4UBB1GfaAQT+E1afIQeKOwB18J8+pgf+3dwC4MAuAKyhPiMVgGg6APGeAB0/frgOneUGzp2qQoRng+3Rn9Lz0sG/Keoz6Vd+j2yBStUVjGz/BXX2gyJjdupyAAAAimVYSWZNTQAqAAAACAAEARoABQAAAAEAAAA+ARsABQAAAAEAAABGASgAAwAAAAEAAgAAh2kABAAAAAEAAABOAAAAAAAAAJAAAAABAAAAkAAAAAEAA5KGAAcAAAASAAAAeKACAAQAAAABAAABGKADAAQAAAABAAAAcAAAAABBU0NJSQAAAFNjcmVlbnNob3TL/HqNAAAACXBIWXMAABYlAAAWJQFJUiTwAAAB1mlUWHRYTUw6Y29tLmFkb2JlLnhtcAAAAAAAPHg6eG1wbWV0YSB4bWxuczp4PSJhZG9iZTpuczptZXRhLyIgeDp4bXB0az0iWE1QIENvcmUgNi4wLjAiPgogICA8cmRmOlJERiB4bWxuczpyZGY9Imh0dHA6Ly93d3cudzMub3JnLzE5OTkvMDIvMjItcmRmLXN5bnRheC1ucyMiPgogICAgICA8cmRmOkRlc2NyaXB0aW9uIHJkZjphYm91dD0iIgogICAgICAgICAgICB4bWxuczpleGlmPSJodHRwOi8vbnMuYWRvYmUuY29tL2V4aWYvMS4wLyI+CiAgICAgICAgIDxleGlmOlBpeGVsWURpbWVuc2lvbj4xMTI8L2V4aWY6UGl4ZWxZRGltZW5zaW9uPgogICAgICAgICA8ZXhpZjpQaXhlbFhEaW1lbnNpb24+MjgwPC9leGlmOlBpeGVsWERpbWVuc2lvbj4KICAgICAgICAgPGV4aWY6VXNlckNvbW1lbnQ+U2NyZWVuc2hvdDwvZXhpZjpVc2VyQ29tbWVudD4KICAgICAgPC9yZGY6RGVzY3JpcHRpb24+CiAgIDwvcmRmOlJERj4KPC94OnhtcG1ldGE+CpUqLLYAAAAcaURPVAAAAAIAAAAAAAAAOAAAACgAAAA4AAAAOAAADh0d0oPWAAAN6UlEQVR4AexddXgU1xY/uLt74OEEJ0go0gLFrXgKfWhxGqRYQx8t2gIt8NBCCxQpUij+4VpIcCc4wZ3vwx3e+d3uDcMyu9kkDLzdPeeP3Zl779zZ+c3M2eM3RtIUaV+RkCAgCAgCFiAQQxiMBajKlIKAIKAQEAYjD4IgIAhYhoAwGMuglYkFAUFAGIw8A4KAIGAZAsJgLINWJhYEBAFhMPIMCAKCgGUICIOxDFqZWBAQBITByDMgCAgCliEgDMYyaGViQUAQEAYjz4AgIAhYhoAwGMuglYkFAUFAGIw8A4KAIGAZAsJgLINWJhYEBAFhMPIMCAKCgGUICIOxDFqZWBAQBITByDMgCAgCliEgDMYyaGViQUAQEAYjz4AgIAhYhoAwGMuglYkFAUFAGIw8A4KAIGAZAsJgLINWJhYEBAGPZzAlS5WiOLFjU0hICL148SJKdzxu3LhUsGBBSpc+PW37+2+6c+dOlOaRgwQBb0PAIxlMihQpaO78+ZQ3b16KGTOmuqevXr2ibwcMoOnTpkXqHv/088/UsFEjihEjRvhxW7dupYCmTcP3ZUMQEATMEfA4BlOkSBGa/+eflCBBAtMrLle2LIWFhZn22TcOGjyYWrZqRY8ePaKaNWrQr7/9RtmzZ1fDSpYoQVeuXLE/RPYFAUHAgIDHMZhZs2dT/vz5ae7cubR71y7yYYbQ4osvKGfOnOqyly5ZQp07dTJAYL5ZlhkRpCBQ1y5daPFff1G3r76ir3v3Vm1FChWiW7duqW35EAQEAXMEPI7BmF8m0QKWakqXKUPXrl2jEsWKORoW3r5k2TIqxuOePXtGOXx8VDvULTCrc+fO0aaNG8PHyoYgIAiYI+A1DCZt2rS0e+9eevDgAeXLk8ccDVsrGMlZZiL4PnniBH3y8cdOx0unICAImCPgNQwGl38kNJQSJkxI2bNlM0fD1lqhYkWCqgVasGAB9QgMtPXIlyAgCEQGAY9jMJA6WrdpQwEBAZQiZUp69PAhbdq8mUaNGEGLly6lrFmzUrYsWUwx6tO3LyVnD5QfG3DzsAcKdOrkSQrZsYPOnDpFU6ZMMT1OGgUBQcAcAY9iMPHixaO169eHe3qMl3zj+nV69vw5pU6dmv5l8wQZ+7F9/uLFN9zRxn7Evviy8VhIEBAEXEfAYxhMsmTJaMOmTQRbizNyxigyZMig7C6r1qyh5MmTq2n82TD8kgP04Kq+ffu2s6mlTxAQBOwQ8BgGA5cyXMug4OBgmvn777Ru7VoqWrQojZ84UUku6Lt06RKVLlkSmw4JBt7YHP37kNWrPLlyORwnHYKAIOAcAY9gMJkyZaJgtpMg2nbwoEE0edKkN67a2H/06FGqWqXKG/3GnfScDrBrzx7VdPr0aapYvryxW7YFAUEgEgh4BIOBxween61btlBAs2aml79v/35KnSZNhF6hzxo0oDFjx6o5Vq9aRW3ZYCwkCAgCUUPAIxjMYZZKkiZNSoiudWQnQQxMunTpqFHDhhTCKpQjGjp8OLVo0UJ1Dx82jMaPG+doqLQLAoJABAh4BIM5d+GCynAu5Ovr8HJhVwFFFAOjI3gxtl6dOrTHpi5hX0gQEAQih4DbMxjYV0J27qQzZ85QhXLlTK++fIUKNHvOHDpy5AhV+/RT0zG6cd+BA+EGYR+OmYlqiQc9n3wLAt6MgNszmEKFC9OKlSuValSYa7bYEwLvDh4+THBjD+Hs6EnsUXJG4kFyho70CQKRQ8DtGQyKQZ0+e1ZddaeOHWkZR+tqglF3EWdBo8QCcpDyc3Tuy5cvdfdb3+JBegsSaRAEooWA2zMYXP0pVo8QxYuiUoiBOc1h/b4szaAKHeJZQF/36kVz//hDbTv6aMAG4NFjxqjulStWUPsvv3Q0VNrdEIFvBw6kZlworDA7A54+fRqlK0CFxJmzZlGvnj3f+DOL0mRecJBHMJggrlTXvkMHh7drHteGwQMREQ374Qdq3ry5GjYgKCjS1e8iml/6PwwCkEwXLFxIPlx24/ixY1SV7XBRta1l5UTZNRzAmShRIlrPaSltW7em55yCImSOgEcwGNhZEAtTzi4oDjd+JCc5uupqXsZSCyrigTylYh3SH/w5whlq4k42hqOmcFRfLvNHKHqtkAZghL/InsCy/v7Rm8zkaCStrlq9WkmyqOHTwvYHYjLU5SaUZF23YYNKS7nOOW6l/PyEyThAzyMYjL42PEwVOeAuJWdR7+Ai39u2baMnT57o7gi/D7GXCTlI9+/fj7BmTISTfeAByMmayiU+kSphJKiRUCHr1K5N9+7dM3a9923YyBAAqeldhwVAbd7L8yNGahkXEOvkRMrVv8HVb9j+tvLzlTFjRtrFjPuz+vVdPdSrxnkUg4nOnUMN3xP84oFcLasZnfNZeWziJEkomBmsTtiEYRtpFMbC5Uj6rFKp0getKwz7GAz0kEDB+AoWKPBOV2xYuny5YrD3mZH68tzvWnLLlTs3rWdJBrjCOwkvpdCbCHgtg0GN3iZs8Js4YYJycTflFIMRI0cqdBArg5gZd6U5bHMqxzFBsBH8l43WOlgwsHt36sG2KM1o/h9SIfw48bQBp2fAAL/fIM1EF/u27drRf9ioC4JaZFWJ05GjRqnnCOcpztIiVCah1wh4LYNBbAx06UOHDlGNatVoI5d6yMmZ07t376b6deu+RsjNtqAe7j94kMA82rVt+9avH/jdd9TG1o60CrPYobcOcsOGPfv2KRuJswDMd3FZsWLFUl5MSGMLue5zIBeGF3qNgNcymONcqQ7lM1HUuxuvGjBx8mTlukQ+04e2Tby+PZHfSpUqFQ0aMoQCu3UzdcWCAR1gpqopC0dCG6k2p0fky5ePfNgonDlzZqVWNGD7gjF+yJdTMoZwnhb6N7CUhBAAI4GBQSqB9+bO3bsUyrliwdu3U2CPHupfvgCrK/9u2VIln+L3IghyDhvpf+F7AKpVqxZ9UrkypWM7EqoSwmPTgUMGQrnkKUgfD6M+7ElB33xDYWFhqg8f+P1r1q1T+zDwI6fMjLrz78nC0dpp2RYEXJ5z3Z86fG4joQTIOJZyHz9+TE0aN6bztpQT45jV7FXCShZwfTsqZmYc703bXstgUB6zS9eu4fcaxuDWvAbSFi6v6cmEf1qdlwUvm31ulo5kNmIwc+ZM6s94gfzYY7KQgxe1moU2zKFdtXNY1dHevFP88r9i+w9sFSC9QgPijYI4DABGXk0oR/q9TaVB2EHjJk2UhKn7UfjrwvnzZJTAdJ+WQvX+tBkzqDIzKBBq/6AGkBlBik3C9iodK4UxfXhZGjA7TVOmTqVq1aurXfvz6DFdmZn37tNH7boSb6WP84Zvr2UwuLmIi8DLcIlLZW7hUg/6JXnXNx7Z2bkjWMkgonNO5n93uHKjSzq1AvNcvXqV/IoXf2tKGF07cFR0v/79VR+Yb84cOdTLCNXDuKjd5cuXlZsWA42SQ/9+/VTRL7R/zzV6WnG8COwTsFNomscF1f1trukmvHrmdpZyjKSlTC0ZTOciYpXYMA2DMCKzEydOrIbDiJvPVkMZDTqfzFVvoJEp7uPrM0oxWOoGS96A7M+jGvnDKBUuZ8Nyx/btdZfXf3s1g3lfdx/FsKBORIfGsrF2xI8/RmcKdSwilSFBgCCVQDpxREizgBEW1Pzzz6kjL1gHlaEHG4sXceAabFYIXNOEYEdIHyAsrYsldkHaTgEJwPjyws0LJg+GgcRSoxqG43SN5GN8DqSAYNG7u6xyVWeb2TVmjojgBqHecjED44JnCm5kI/NTAx18IPYJMVAgs5KqWiKCeuQoVkf/1gNsqK5Vs6aDM3lfszCY93DPFy5aREUML0BUTjls6FCaGs1VDRAXEnr8OMWJE8ellw9h8fjtIDAHpF6s5XrFUCXNCPabCbZkUpQbLcYvLiQNEDLe4cnpa1Ml0HaG7Sb4LTdv3qSinLRqJKhiixYvVk2b2QCPYDxIMlj6F0v2IqJ2m03isZc6LthUIjAmuOJdIa0agtlltfszaMceKaQZOIul0cc7kgpd+Q2eOEYYjCfeVQfXpFe3hC3Ev3RppSI5GBrerNUUNEBVKsAGVEfBi7BlnOQyo9qmAZWo/EcfhTOZ8El5w8ggEBDZlA2oRoJ61qlzZ9WE80EiQalTbeiFy72nzbhslO5gtN1uKyiGwmIoMOYK7WXVKI2tYDzKfsD7pAnzYV5n0d1g3FDZUBw+t22ZYn28N3+7PYPR/1bv+ybae1/e9/kje77O7Cnry3YRqCFQX/BSu0K6HCnGmtU7tp+jbr16NG78+PBmMJkyLAnZJxca1SmofmASRtJBcrrN3htkTOswMgREc69jzxYIkg9UO1cI0hKkJhCkrNmcwgDSUllE0bo6ClwbstXB8kHCYKL4ELgTg2nEBtSfRo9Wtg7ExiBGxlUazy7aOra4oFn80vUzqDiO5gjgl3o4J45qTxMC/ZAGYCQUAIPaA6rMaozRloO2UFZvEJEMMlsJQmfQawOwGsgfcGkf4+V+Qfaqk2p08DGIo3Bb2lS/+fPmUU92YUNqAuOIHz8+Fed1ym/euOHg6NcZ/bARQcoT+gcBt2cw7nAjUUQ8ujaYIFYZtNE0MtdclQ2icLWCurIUs8Rm13BlDniclrPxUzMKe2OqszkQ5zKY43E0IVZlxvTpelflIMFNbeYqN6Zt4AD7HKUc7NHabDMgm1UpRAlVeMLOsrEXKporpCUVjNWGWtiT0G4vPZnNp8+JeBzYiYT+QeB/AAAA//9ZPytqAAALhUlEQVTtXAdwFUcSbZHjkaGIBiGMAYMQHEkgMFEggokCTDiQuHOZIKIIxgcYixxMUAAfhnPZJJMsQGCTRDAimyCRo8lBUHCkIl+/kfZrv/hfXyqXy8uou0r/z+7MrmZe/33b09PTbn/LV/gNifypCOzZt49KlCjxh/7HnNmzadrUqWm6h2/z5vSfBQvozZs31CcggDZv3mx3/eAhQ6hd+/ZUv149u/M4yJgxIx0+epRy5cpFh3/7jWrWqqXa1K5Zk65du/ZW+/CICLp06RJNnTLFVjd7zhxq36GDOo6NjSU/7g8kQ4YMdOnyZXJzc1P3wj3N4teyJc3/5ht16sSJE+TbtKm5moaPGEEDgoLUubDQUJo8aZJd/clTpyhX7twUf+cOeVWtalfn7KBAgQJ05NgxVX39+nUK7N2bNv7yC927d488K1d2dpnt/JVETPbu2UOdOna0nU/vBTchmD//JzBy1CiqVbv2H/pHofywbt26NdX3MMjl1atX1K1rV4qJibG7NmfOnHSUH/oHDx5QdS8vuzocLFy0iJo2a0ZfjhtHz549o4mJD/G6tWup72efqfZh4eG0fPly2rljB+Ghjr97l3zq1rXdq2SpUhTDDxzkyZMnVL5cOVWuwYSyes0aVd7ED3Egk1+nTp3o1OnTFMsP+YyZM8m/c2dVP2P6dJr19deqbHz8vGkTVapUSR02atiQbty4QQMGDKApkyfT69evaeevv1KZMmXo5cuXVOa994zLXH5f/P13ypQpEz16+JD+x3/FihWjDkzA+/kFkZKAfFetXq2aLP7hBxrJBCiSgID2BOPh4UFl+W/37t3qh5MeFG+QCyyEc2fP0m1+k6NsSLZs2ahixYqUNWtWRQ7dPvmEGjVqRMOCg5UVkpvf/h/xg3vx4kVl3eD4+MmT6h6whkYzYbZq04a8vb0V2YB0Ll+9qm7/92rV6Pbt26qcP39+RWI4MFsTZgtkx/btdOvWLUUo89gKmhASQtFMWNAbpGGDBnTu3DlVNj7O8HH27NnV4RejR9PAgQMpb758VJlJ5/HjxwTLbMjQoao+oFevtyw34z7Jvw8dPkyFCxe2nV6xYgUNGTTIduysMJetqLbt2qnquozJZSYqkQQEtCWYiPnzydfXlzJnzmzT9c8bN9I/+/SxHetYwEO/7Mcf7QglpXFieoFpRvKH68WLF1SzRg1FDLh+C1tP5T/4wO5WayMjqV/fvuTu7k47du1SdXeYXIAxrJ6QiROpevXq6nzo3LnKwsDBHC5jamaWw/xwt2nVSp06z8SWJUsWQh/cS5c2N1Nlw9IwV5iJBNeeZmKFNWJYSOa2zsqwQoypIKZGXp6eyiJy1t44j6lkwYIF6QpP+7zr1DFOyzcjoB3B5MmThzYwkZRyYhrDRzCXpxu6yqDBg2nosGGpHl6Txo3pNE9vlixbRj4+Puo6PNi9+c0P68KQxtxuwcKF6qHFueht26hnjx6qugtPwabxVAZTC/g+zAKLZ+XKlXaWgNnHgrYgl45MOM+fP1fXY7oFOX/+PH1Uv74qmz8i162jamwpQTAlGjtmDP2Xp3Rm+Z6nKrDCnj59ShWZGDFdciXjv/qKevN0DX2GvyguLs7VJWqqhikbZNzYsfQt+7xEkhDQjmAC+e0ZPHw4Ra1fT1u2bFGmdNu2bakhTwEgN2/epBqJb9UkGKQEBJqyMxUP7C62RvCwJxdMqdp8/DHt2rlT4WjUl3v/fapSpQqtYiIpWrQoefHDD6f2SXbQHjx4UD3kRlvj27gGTlFHTmOjnbNvWEb4X5v44XbUV0yxtjFBYmq4hi2TIPbRuBLDdxMeFkaT2PpKjew7cED5auLj4wnTQ/i8RJIQ0I5gkoZmX/rXp5/Sv/lNBylZvLh9pRxpiUCPnj2VcxoWSQueLh8/ftzpOEeMHEn9mYQuXLhADRItOaeNEyuC2PeDlxmsowZsaYnv5W3E0g3BYOix/APLmzcvfcgOTqyeiOiPgOGAffToEfnyqhhIAD4aT/avHGDrA4JVLfhfQBRmv1NK6LRmJ3coWzpYcu/frx9F/vRTSs3TbV26IpilvKRaj2M+/Fq0UMuh6Vbr6Wzgi5csofq8GgXfUmd/f4qYN4+KFCmifE+94GviKR9IB8vlcAq7kr5MKKM+/1z5auAkx5RKxDECWhIMnHtYqixVsiS95DnxoUOH1I+ge/fu1JWXZLEsi9gNCJzBzfjN5l62LJXmciFeplzEzswlixfbEMNb6gueXjVnMxurI4N56fLIkSO2eilYHwHE2UxlRzR0CaKBP8kss2fNounTpplPOSy34pUurFDC5+LP9zx75ozDdnIyAQHtCGYm/1DwY0ouMH/37t2rLBgEZxk/jOkzZqgYDHOcCH6ARkwF7rM+Koo8TRGhiIjFsqjIu4VAwUKFKDAwUDmy4W8B2cBBjJXF+WzVpEYQfxPMgXQh48enagk7NffUuY1WBGMsTbpSmAfHbcASMUsJtnYiOWDMCLQy3mgwhWESmwXBVwjCEnl3EcBWiAoVKqRqKfrdHeVf33NtCCaA30xf8lsFgr0kERzGjgjTnLyXBo4+I24CKwqlnOwLKs1BXbs44hdy9coV6tqliwo7Ryg64jEQ0YplyLscEi8iCAgCrhHQhmDiOOYCQXYIDkMAGOI5zGKsIGH64+4gOtRoa8RCgIjO8N4YxGtgMx5IRkQQEATShoAWBNONnbeTeR59//595TtxBMG37Lhtxk7aq7xnpk7izmBH7bBLF3tlDElL0JVxjXwLAoJAAgJaEIwR5p6SbyScnXitW7cmV7tdYQXBGoIgdqJC+fIJSMmnICAIpBkBLQgGKQGQGsCR89ZAJJqnTh6cLqClnx8d481pzgQEc4z3oGCFAStPZXnbf/LplrNr5bwgIAjYI6AFwWD7PnZNO8v9AecsSANEAcJISdbxknRV05I0cp/AWSwiCAgCaUdAC4Ixtu+DPBxtfEP6grqcCOnA/v3UPjFvhyOo/sGxLSETJtDqVatsmdhcXePoPnJOEBAEEhDQgmBgneTjhENGfhJDuYh1QCpHpAeAOEpeZLTFEjUSHSHzGoLscE9Ml2D1YO/SQ05FgB28iIlBSLmIICAIuEZAC4IxR9oi+1kMx7IgZSLSBiCnLGQzb+sP4DyrhsDHEsbkU4S3BmCXLVI05siRg3rwitT26Gha9N131KRJE9UceUGWc76UMZzv4w5nh6vFiZhEBAFBwDUCWhCMF+eUXcv5X5wJdtD68CZHs7PW2FNivmbZ0qUUnJisqQrvto3asMFcrZy+3pxbV2Ji7GCRA0HAKQJaEAxGh82N+DPvKcL5KHbaBvXv/5ZvBlMiBNUZ7ffwSpR/smzwIC2QFwRbC3qydZM8ebaqlA9BQBBwiIA2BIPRYR9RE87KhuXoOM6Yj6kOcqs6k+KceAo5bPex89dZsiDkCkEGfuy+NltAzu4p5wUBQSAJAa0IJmlYUhIEBAErICAEYwUtSB8EAU0REILRVLEyLEHACggIwVhBC9IHQUBTBIRgNFWsDEsQsAICQjBW0IL0QRDQFAEhGE0VK8MSBKyAgBCMFbQgfRAENEVACEZTxcqwBAErICAEYwUtSB8EAU0REILRVLEyLEHACggIwVhBC9IHQUBTBIRgNFWsDEsQsAICQjBW0IL0QRDQFAEhGE0VK8MSBKyAgBCMFbQgfRAENEVACEZTxcqwBAErICAEYwUtSB8EAU0REILRVLEyLEHACggIwVhBC9IHQUBTBIRgNFWsDEsQsAICQjBW0IL0QRDQFAEhGE0VK8MSBKyAgBCMFbQgfRAENEVACEZTxcqwBAErICAEYwUtSB8EAU0REILRVLEyLEHACggIwVhBC9IHQUBTBIRgNFWsDEsQsAICQjBW0IL0QRDQFAEhGE0VK8MSBKyAgBCMFbQgfRAENEXg/73bmbhJ5/k9AAAAAElFTkSuQmCC;" parent="1" vertex="1">
          <mxGeometry x="20" y="360" width="280" height="112" as="geometry" />
        </mxCell>
        <mxCell id="BVL4aWfITr0X4t9vTMms-5" value="" style="shape=image;verticalLabelPosition=bottom;labelBackgroundColor=default;verticalAlign=top;aspect=fixed;imageAspect=0;image=data:image/png,iVBORw0KGgoAAAANSUhEUgAAASIAAAB6CAYAAAAbFF6YAAAMTmlDQ1BJQ0MgUHJvZmlsZQAASImVVwdYU8kWnltSSQgQiICU0JsgIiWAlBBaAOlFEJWQBAglxoSgYkcXFVy7iGBFV0FcdHUFZLFhVxbF7loWCwor6+K62JU3IYAu+8r35vvmzn//OfPPOefO3HsHAEaHQCbLRbUAyJPmy2NDAtiTklPYpC5AAyTABDqAIxAqZNzo6AgAy1D79/L6JkBU7TVHldY/+/9r0RaJFUIAkGiI00UKYR7EPwKANwtl8nwAiDLIW8zMl6nweoh15dBBiKtVOFONm1U4XY2vDNjEx/IgfgIAmSYQyDMB0OyFPLtAmAl1GDBa4CwVSaQQ+0Psm5c3XQTxQohtoQ2ck6HS56R/pZP5N830YU2BIHMYq2MZKORAiUKWK5j9f6bjf5e8XOXQHDaw0rLkobGqmGHenuRMD1dhGsRvpemRURDrAIDiEtGAvQqzspShCWp71Fao4MGcARbEExS5cfxBPlYkCAyH2AjiDGluZMSgTVGGJFhlA/OHlkvy+fEQ60NcLVYExQ3anJBPjx2a92aGnMcd5LsE8gEfVPqflTkJXLU+ppMl5g/qY06FWfFJEFMhDiyQJEZCrAlxpCInLnzQJrUwixc5ZCNXxqpisYRYLpaGBKj1sbIMeXDsoP3ePMVQ7NiJLAk/chBfzc+KD1XnCnsiFAz4D2PBesVSbsKQjlgxKWIoFpE4MEgdO04WSxPi1DyuL8sPiFWPxe1ludGD9niAODdExZtDHK8oiBsaW5APF6daHy+W5UfHq/3EK7IFYdFqf/ADIALwQCBgAyWs6WA6yAaStp6GHnin7gkGAiAHmUAMHAeZoRFJAz1SeI0DheB3iMRAMTwuYKBXDAog/2kEq+Ikw5z66ggyBvtUKjngKcR5IBzkwnvlgJJ02INE8AQykn94JIBVCGPIhVXV/+/5IfYLw4VMxCCjHJqRzRiyJAYRA4mhxGCiHW6I++LeeAS8+sPqgnNwz6E4vtgTnhLaCY8INwgdhDvTJEXyEV5OBB1QP3gwP+lf5we3hppueADuA9WhMs7CDYEj7grn4eJ+cGY3yPIG/VZlhT1C+28RfPWEBu0ozhSUMoriT7EdOVLTXtNtWEWV66/zo/Y1fTjfvOGekfPzvsq+CLbhIy2xZdgh7Bx2EruANWMNgI0dxxqxVuyoCg+vuCcDK25ottgBf3Kgzsg18+XJqjKpcK517nb+qO7LF8/KV21G3nTZbLkkMyufzYVfDDGbLxU6jWG7OLu4AqD6/qhfb69iBr4rCKv1C7f4VwB8jvf39//0hQs7DsAPHvCVcOQLZ8uBnxYNAM4fESrlBWoOV10I8M3BgLvPAJgAC2AL43EB7sAb+IMgEAaiQDxIBlOh91lwncvBTDAXLALFoBSsBhtABdgGdoJq8D04CBpAMzgJzoJL4Aq4Ae7C1dMJnoNe8Bp8QBCEhNARJmKAmCJWiAPignAQXyQIiUBikWQkDclEpIgSmYssRkqRtUgFsgOpQX5AjiAnkQtIO3IHeYh0I38i71EMpaG6qDFqjY5FOSgXDUfj0SloJjoDLUSXoCvRcrQK3YfWoyfRS+gNtAN9jvZhANPAWJgZ5ohxMB4WhaVgGZgcm4+VYGVYFVaHNcHnfA3rwHqwdzgRZ+Js3BGu4FA8ARfiM/D5+Aq8Aq/G6/HT+DX8Id6LfybQCUYEB4IXgU+YRMgkzCQUE8oIuwmHCWfgXuokvCYSiSyiDdED7sVkYjZxDnEFcQtxP/EEsZ34mNhHIpEMSA4kH1IUSUDKJxWTNpH2kY6TrpI6SW/JGmRTsgs5mJxClpKLyGXkveRj5KvkZ+QPFC2KFcWLEkURUWZTVlF2UZoolymdlA9UbaoN1YcaT82mLqKWU+uoZ6j3qK80NDTMNTw1YjQkGgs1yjUOaJzXeKjxjqZDs6fxaKk0JW0lbQ/tBO0O7RWdTrem+9NT6Pn0lfQa+in6A/pbTaamkyZfU6S5QLNSs17zquYLBoVhxeAypjIKGWWMQ4zLjB4tipa1Fk9LoDVfq1LriNYtrT5tpvY47SjtPO0V2nu1L2h36ZB0rHWCdEQ6S3R26pzSeczEmBZMHlPIXMzcxTzD7NQl6tro8nWzdUt1v9dt0+3V09Fz1UvUm6VXqXdUr4OFsaxZfFYuaxXrIOsm6/0o41HcUeJRy0fVjbo66o3+aH1/fbF+if5+/Rv67w3YBkEGOQZrDBoM7hvihvaGMYYzDbcanjHsGa072nu0cHTJ6IOjfzFCjeyNYo3mGO00ajXqMzYxDjGWGW8yPmXcY8Iy8TfJNllvcsyk25Rp6msqMV1vetz0N7Yem8vOZZezT7N7zYzMQs2UZjvM2sw+mNuYJ5gXme83v29BteBYZFist2ix6LU0tZxoOdey1vIXK4oVxyrLaqPVOas31jbWSdZLrRusu2z0bfg2hTa1Nvds6bZ+tjNsq2yv2xHtOHY5dlvsrtij9m72WfaV9pcdUAd3B4nDFof2MYQxnmOkY6rG3HKkOXIdCxxrHR86sZwinIqcGpxejLUcmzJ2zdhzYz87uznnOu9yvjtOZ1zYuKJxTeP+dLF3EbpUulwfTx8fPH7B+MbxL10dXMWuW11vuzHdJrotdWtx++Tu4S53r3Pv9rD0SPPY7HGLo8uJ5qzgnPckeAZ4LvBs9nzn5e6V73XQ6w9vR+8c773eXRNsJogn7Jrw2MfcR+Czw6fDl+2b5rvdt8PPzE/gV+X3yN/CX+S/2/8Z146bzd3HfRHgHCAPOBzwhufFm8c7EYgFhgSWBLYF6QQlBFUEPQg2D84Mrg3uDXELmRNyIpQQGh66JvQW35gv5Nfwe8M8wuaFnQ6nhceFV4Q/irCPkEc0TUQnhk1cN/FepFWkNLIhCkTxo9ZF3Y+2iZ4R/VMMMSY6pjLmaey42Lmx5+KYcdPi9sa9jg+IXxV/N8E2QZnQkshITE2sSXyTFJi0Nqlj0thJ8yZdSjZMliQ3ppBSElN2p/RNDpq8YXJnqltqcerNKTZTZk25MNVwau7Uo9MY0wTTDqUR0pLS9qZ9FEQJqgR96fz0zem9Qp5wo/C5yF+0XtQt9hGvFT/L8MlYm9GV6ZO5LrM7yy+rLKtHwpNUSF5mh2Zvy36TE5WzJ6c/Nyl3fx45Ly3viFRHmiM9Pd1k+qzp7TIHWbGsY4bXjA0zeuXh8t0KRDFF0ZivC3/0W5W2ym+UDwt8CyoL3s5MnHlolvYs6azW2fazl89+Vhhc+N0cfI5wTstcs7mL5j6cx523Yz4yP31+ywKLBUsWdC4MWVi9iLooZ9HPRc5Fa4v+Wpy0uGmJ8ZKFSx5/E/JNbbFmsbz41lLvpduW4csky9qWj1++afnnElHJxVLn0rLSjyuEKy5+O+7b8m/7V2asbFvlvmrrauJq6eqba/zWVK/VXlu49vG6ievq17PXl6z/a8O0DRfKXMu2baRuVG7sKI8ob9xkuWn1po8VWRU3KgMq92822rx885stoi1Xt/pvrdtmvK102/vtku23d4TsqK+yrirbSdxZsPPprsRd577jfFez23B36e5Pe6R7Oqpjq0/XeNTU7DXau6oWrVXWdu9L3Xfl+8DvG+sc63bsZ+0vPQAOKA/89kPaDzcPhh9sOcQ5VPej1Y+bDzMPl9Qj9bPrexuyGjoakxvbj4QdaWnybjr8k9NPe5rNmiuP6h1ddYx6bMmx/uOFx/tOyE70nMw8+bhlWsvdU5NOXT8dc7rtTPiZ82eDz546xz13/LzP+eYLXheOXORcbLjkfqm+1a318M9uPx9uc2+rv+xxufGK55Wm9gntx676XT15LfDa2ev865duRN5ov5lw8/at1Fsdt0W3u+7k3nn5S8EvH+4uvEe4V3Jf637ZA6MHVb/a/bq/w73j6MPAh62P4h7dfSx8/PyJ4snHziVP6U/Lnpk+q+ly6WruDu6+8tvk3zqfy55/6Cn+Xfv3zS9sX/z4h/8frb2Tejtfyl/2/7nilcGrPX+5/tXSF9334HXe6w9vSt4avK1+x3l37n3S+2cfZn4kfSz/ZPep6XP453v9ef39MoFcMPArgAHV0SYDgD/3AEBPBoAJz43Uyerz4UBB1GfaAQT+E1afIQeKOwB18J8+pgf+3dwC4MAuAKyhPiMVgGg6APGeAB0/frgOneUGzp2qQoRng+3Rn9Lz0sG/Keoz6Vd+j2yBStUVjGz/BXX2gyJjdupyAAAAimVYSWZNTQAqAAAACAAEARoABQAAAAEAAAA+ARsABQAAAAEAAABGASgAAwAAAAEAAgAAh2kABAAAAAEAAABOAAAAAAAAAJAAAAABAAAAkAAAAAEAA5KGAAcAAAASAAAAeKACAAQAAAABAAABIqADAAQAAAABAAAAegAAAABBU0NJSQAAAFNjcmVlbnNob3R41a5LAAAACXBIWXMAABYlAAAWJQFJUiTwAAAB1mlUWHRYTUw6Y29tLmFkb2JlLnhtcAAAAAAAPHg6eG1wbWV0YSB4bWxuczp4PSJhZG9iZTpuczptZXRhLyIgeDp4bXB0az0iWE1QIENvcmUgNi4wLjAiPgogICA8cmRmOlJERiB4bWxuczpyZGY9Imh0dHA6Ly93d3cudzMub3JnLzE5OTkvMDIvMjItcmRmLXN5bnRheC1ucyMiPgogICAgICA8cmRmOkRlc2NyaXB0aW9uIHJkZjphYm91dD0iIgogICAgICAgICAgICB4bWxuczpleGlmPSJodHRwOi8vbnMuYWRvYmUuY29tL2V4aWYvMS4wLyI+CiAgICAgICAgIDxleGlmOlBpeGVsWURpbWVuc2lvbj4xMjI8L2V4aWY6UGl4ZWxZRGltZW5zaW9uPgogICAgICAgICA8ZXhpZjpQaXhlbFhEaW1lbnNpb24+MjkwPC9leGlmOlBpeGVsWERpbWVuc2lvbj4KICAgICAgICAgPGV4aWY6VXNlckNvbW1lbnQ+U2NyZWVuc2hvdDwvZXhpZjpVc2VyQ29tbWVudD4KICAgICAgPC9yZGY6RGVzY3JpcHRpb24+CiAgIDwvcmRmOlJERj4KPC94OnhtcG1ldGE+ChVe7BwAAAAcaURPVAAAAAIAAAAAAAAAPQAAACgAAAA9AAAAPQAADcsvloFHAAANl0lEQVR4AexdBZQUxxZ9uLsHd7flB1jcIQR39wMBEhwCBAgslgTJx4Is8nEnHByCQ4AAi1twd3fnv1tMDc3Y7gxwenfmvXN2p6e6pqf6dvedV88qXOx4id+RiCAgCAgCJiIQTojIRPTlqwUBQUAhIEQkN4IgIAiYjoAQkemXQAYgCAgCQkRyDwgCgoDpCAgRmX4JZACCgCAgRCT3gCAgCJiOgBCR6ZdABiAICAJCRHIPCAKCgOkICBGZfglkAIKAICBEJPeAICAImI6AEJHpl0AGIAgIAkJEcg8IAoKA6QgIEZl+CWQAgoAgIEQk94AgIAiYjoAQkemXQAYgCAgCQkRyDwgCgoDpCAgRmX4JZACCgCAgRCT3gCAgCJiOgBCR6ZdABiAICAJCRHIPCAKCgOkICBGZfglkAIKAICBEJPeAICAImI6AEJHpl0AGIAgIAkJEcg8IAoKA6QgIEZl+CWQAgoAgIEQk94AgIAiYjoAQkemXQAYgCAgCPkdEkSNHphIlS9KVy5fp6NGjHt8BsWLFIr98+dTn/96+nV6/fu3xseSDgoCvI+AzRJSPSSNw8mRKlDix9Zq/ePGCqlerRocPHbK2BbcRI0YMWrRkCeXIkcPa9d27d/TL0KH0x7hx1jbZEAQEgZAj4BNE1Kx5cwoYOJDChQtnh8zTp08pc8aMdu3OGjZt2UIZMmSg06dOUdOmTWkzv48UKRK5exxnx5d2QcAXEfAJItq3fz/duXuX5s2dS2fOnKE8efJQm+++o5gxY6pr3qplS1q7Zk2w13/wkCHUhMkHGlDO7NnpwYMHtGzFCsqbN6/azpEtW7DHkA6CgCBgj4BPEJH9aRNFixaN9gQFUZw4cWj58uXUjokpOPmXtaDo0aPTiRMnqGzp0qo7Pt+0WTNatXIlnT59OrhDyH5BQBBwgIDPEhGwaNioEf3y66+0a+dOql2rlgN4PjQVL1GCZs2erRqmsK2p/88/f9gpW4KAIPBJCPg0EcHwfOLkSTrFf6XYk+ZKRv7+O9WuU0d1acwEtnnTJlfdZZ8gIAi4gYBPEBFc7T179aISrNXE5O1r167RmtWr6b9MLhcuXVKu/EL+/nawxYsXj3r07KnaK1eurKZxeLNw4UKCx239unW0YcMGu89JgyAgCLiHgNcTUcZMmWjlqlXKJmQLzbq1a6lsuXJ07NgxqsCvtoJ4o5mzZtk2W99v27qVGtSvb30vG4KAIOAZAl5NRPBmLf7zT+VedwXPtm3bqEG9enZdIkaMSEmSJKEI/Pr3jh1q/132vlWsUEFtP3j4kB4/emT3OWkQBAQB9xDwaiI6evw4xY4dW7nbF8yfT4sWLaL9+/ZRHbb1BAwaRCAayJLFi6ljhw5Okfs6f35awoQG2bt3L1WvWtVpX9khCAgC7iPgtUQEl/qgwYPp1atXVJeJZ8/u3R+hoz1maERE9FCOEXImPzBJ9fjxR7V7xvTp9FPv3s66SrsgIAh4gIDXEtFhziOLGzcu9WYj9cwZM+ygiRAhAp2/eFG1B+cFmzJ1KpUrX171/eH772mpRTuyO6g0CAKCgEcIeCURabf87du3KW/u3A6BCR8+vCIiREmnTpnSYR/duIVtSOnSpVNv83JU9u1bt/QueRUEBIHPgIBXElGx4sVp9pw5tGnjRmrSuLFDmJDmsRzR0BwtXZLd+q5ER1Qjwz5t6tSuuso+QUAQ8AABrySiTp07U9du3WjmzJnU2xIHZIvNiJEjqU7dujRu7FiVOW+7X7+HQfvchQvq7a2bN8mPPXEigoAg8HkR8EoiGhAQQC04kXX9+vXUnJNUbQXTrM0cA4RsfP+CBekyBzU6E/GYvUcmZ65c9NuwYZQmTRpVe+kEeySR5vIpNZ2cYS7tvoeAVxJRPQ4yHDZ8uHpg/AsUoOvXr1uvbH5+jyBFJK+GxBUvHjOi+PHjUxBXMIBd7dmzZwQbHARTVXgkd//zjxVf2RAEPEHAK4kI9YJQNwiCh2UNl/h48vgx+fn5ESKtIW/fvqUihQvTJYvnTDU6+Dd12jQVfY1d7dq2peXLljno5d1NK9iW9paN+lUqVVInCnxXMaaqgsGePVSDi8uFNanE5zKCU3waNWxoF9oR0nNBtc+Dhw/T/HnzJAk6pKA56eeVRIRz/YtzwLJkyeLktInatG6tSnc47WDZsZXLwKZNm1a9y8bHe+SDkdQTJk2iDhy28PLlSytco0aPpho1a9JjJvismTNb20P7BsI2JgUGqnAMjL08p/ZctNgA3R07jvUXT//x44YfNFRwuHLliruHkf6MgNcSUfLkyVV6B16NgmJm7du1oy2bNxubnW6f5BpD+OWXCowfQ4TyKQgKvckG/HxhxIAPDWYXTyNRLhjjLlOqFN27d+/jE/PgHcrDoEwMtG/UqZK6VO6D6LVEpKEozNOvQvyHbHkkqR48eFBNy/R+V6/I1D/ORdAgIalZ5OpY3rZvJz/QKVKkoGkc7Nmvb98wcXqLudY4bIRXr16lwlxtAcTxuWT8xImE6d5Dzj/8D5sAYEsTCTkCXk9EIYfCvmddToQdPmKE2hHScrL2R/G+lpSpUqkk4Pv376uHzjhlC61n27lLF+rStavKOyzF2svn1lowTTvC0fz48UI1h/Jly4ZWKELluISIDJelNKvVmdkONHHCBHrz5g3N4Dikkqy+I18tHbutRd6X2N3Nib/wOhYpVEjVdgrtuCDkALY+hGvM5UDXHt27f5Ehl+J7ZTrfMxBnqUVf5Iu94KBCRJaLiOJpxyzTsNGjRtFI1oROnz2rMvSxVBACH0XeOwEysXG2KheKO3DgQJiARE+bMBVLz44HeEy/lGjnxmVeNw+hIyIhQ0CIyIJTsmTJCL/0kLNMQFg0sXGTJkqFL8kpI2FdMGWoyuVL0rPrPQ2nqST76iu1nputdlC7dm1qy8b8aKzxoCqBMWF4Dq+CUrhIEUKS8FZLeEQh1opgfwvihQgcCVJpqteoQUWLFqUYvGoKUmqGcFUER4GQ+DGoXKWKCpfAunGo/QTbXMCAAUpDdXT8lq1aUU323iVNmpRQH+o4T4t2cu2oTjwV00b0M+fOEQzV+E5HBfBw3Jrs8SrAxJEwUSJKkCABxeKxtuVwjX8tP07oAwxXc9gCKnd258j91Vxwz1Z6cWWGdu3bq+YyrGEbP2/bV95/QECI6AMW1qWBdBOMmpW//VZ5WHRbWH1F/h28O7Zru6EgHArDQbr36EEdOna0nqIxaRgk5M+kU4tJRZMOvIn7WCsKZPc+NEijIDVmAZfURWQ6BFiCDBImTKg0kuJMTOfPn1f78K8qxyKNHjNGBU1Cc7nG/ZOzMRxBlAhILVemjJ2HC2MqWqyYOgZsPu9Y09FxYno6jTrjqDcO+Y09fWM47MCRLFm6lHJx9HiUKFGsu1GXHKSrBWMca1lEE+SbwZIIrffjNQUnUO/ctUs1ucp1NH5Gtr3Yfe/pxcWKsHnYHR3E2tGXnHr81KcPRY0a1dNh0vPnz1WOHGxZ7ggeNARpgpggWOW24jffUEH2IoE4jESF4E0EceoHHg+30RsEDQb9QdZGrKCdrOYyvCAdEBAqWt65c0et/4Z14CCBHMsT0L+/2h7IReqwCCbEuLQTtCn0x3fAMI615LRkzZqV1nEMD8Roj8FCms1btLCGFRgDUnPnzKm0LH0MR6/QgofwVByCc83EGqQWkOspXhdPF9TLwlPUJ0+e6N3WVyzIgOjzsBTaYB28SRuiEZkE/EW2IRgfek+GUZTDEoxaRUiPAS0D1SuxwCTsJRnTp6f9HNYAAzTiYLC4QAImEQT6QcPY6GLFEpRRScWai1HWczApjP54SGEn0bE6RsL5H5NhXybj8kxSk6dMUR9HbBcinY2C1JLElmXCUUUT1TQhWCCzjyVswKjVwXsF295hjnhGJPgaXuAgOxOYo3Eav8e4jSRnZ2SjNSzg5qx8DNbLAxk705qM3yXb7xEQIjLpTkDhNjz4nyLF2F7jaSTvUJ6mNLJMOzDVgibYpVMntULJp4ypImtHE3mqBunG7nKkP2iB1gMywtSrHLu3sYzToSNHlM0FRJGHp0awCxlFa2NoW8ylfjtZpo6wJf0xfrzqimBTP9aetHayi6txYlrVk6tqaiLTUzXjsZ1tG+tP2RbNw4KaR9gOdePGDRW64OgYmojdIT9Hx/GlNiEiX7rahnM12jLQ/LliXzSxILYIHipbgdEaycaY9rRu04b69uunujhLQNblWtDJaHOxnSZhGgRi1mSkvxfaEaaj7qSiBPICmhV4ugqBTQm2JS2IK0N8GbQ5aHWORAdOYl9BtpF5+mPh6Nje2uaVRHTJpHyflDbpJKH9ptHldDHOr1kjMlYp8GTseODx4EO2s9exPtd7ciULWMPxt6wnh5IiWEHXVow2ntlcNQFajhaj8RhtICNMBY0BlmfZIB4pUiQ7G5M+hqNXeL3g/YIYp4vwqAXx4gvQwFzl16Eon7bBYeFOaH4irhEQInKNj1t7wxoRaVsGTrIme8M+tZyHcR04bQNyBaCeNqFPXQ4b2GFZssn4GWT552QjM8TR1LEB25SQ96btbZhmVuNpmxa9kout4Vnvd/SKZai0UR3JrHrxTVQhyM1TwOCqMOh+OLYzg7aj7/Xltv8DAAD//7j3F6kAAAwrSURBVO2dB5QUxRaGL0hOkh8comQkLlEyKFFAASXnjKA8BMmIPgQJCjySgCSVICBJcpQkQXJeUckgKPlIOOR3/2J76d2dnendtZ86899z9mxPd1X19Dczf9+6das6VrIUaZ8I7f9OYNWaNZIoUaJon/f+/ftSt04dufXHH9Fq493u3aV7jx6hdVeuWCEdO3QIfR2djf4DBkint94yVT8YOFCmT5vmtZlTZ85InDhxTJn8L74oN2/ejFD+0JEjkiJFCrO/RLFicvHixQhlWrZqJYOHDAndP6B/f/nyiy/M6y3ffy8vvPCCPH78WLJkyhRaxtvGc889J6fPnjVF7t27JzmyZZNatWrJxMmT5ejRo1K9alVv1WXrtm2SNWvWKJ3Ta4MBcDAWheiv+ZTPnj8vsWLFitHJy5UpI6dPn45yG9n0h7Vx82Y5o0KAH3ny5Mnl9u3bkidXrii3Za8wdPhwadasmdk1Yfx4GTZ0qP1whG27EOXNkyeCqBYuXFiWqUDCfvvtNylWpIjZ/mziRHPdI/R8lo0ZO1bqvfGGeXn48GF5tXp1sz3vm2+kdOnSZjtThgxWcZ//f/zpJ0mcOLE8efJEsqmoHA0OlgQJEkjpl16SCxcueK2//8ABSZ0mjdy6dUvy5s7ttSwPPiVAIfqLvgkzvvzSCEBMTt+2dWu5du1alJrA3X73nj3mh/JyxYoy6KOPpFz58qYNeETwjJIkTSpT1Zvp+vbb8vvvvztuv1379vLBhx+a8kfUk6lRrVqEuhAR/EB79ewpdm+njXo169atC1N+7vz5UkbFFvZGvXqy64cfzHbwjz/KlatXBUJsWabMmWX7jh3m5Z07dyR3zpxm2y6O9erWld27dllVvP7fuGmT5AhpY83q1VJNhW3ypEkyWHl5s9ixY8uJU6eMp4ebhP09eqsX6McCUojixYsnFStVkgvqlcDV9nd7p2tXqVGjhkAcSql3gG7DrFmzpG/v3lK/QQMZNXq0QQCB6N+vn/TTrk2qVKmkVMmScunSJcd44Glt3ro1tDzOMUiFCV3QV2vWlDZt20r27NmlS+fOsmzpUpn8+edmPyrMmD5dBr7/fmjdjp06yYCQ1ztUYBq8+WboMXiTMHhIllCmTJlSDqonBLty+bIEqTcFy5Ejh/H+sL140SLp+s472PRpk/S91dT3bNl5PSd4+LKqKr7T9Fpg8NjGqadG800goISoaNGiMmXqVEmTNm0oGcQAEGs5fOhQ6D5/2sAdGvEOezfwrHbJyoR0V3D8l5MnJW7cuGEuu7PGeiAWUTXEvvLnzx9ptd69esmc2bPNcYjH3v37jfeAGE7fPn3kqno6DRs2lCohcZhly5ZJZxUly+xid1m9tfbt2gk+w8Effyz4fGHjx42T4cOGWVVk2/btkjlLljACFXowkg27EOK9lStbVsDNl02fMcO8d9TJqaKLWB7NN4GAEaJW2o1BN8T+g7Tw2F15a58//T9y7Jg8//zz5pLgLVR+5RXzg7euEZ5Hh44dDRvERPAjRownOpYwYUJZuny55NGYj90QVB+oAexvtLtlt9xabsHChWG6qXgPl/V9wqOYN3euvbg0atxYPvn0UxNPQhfSbqi3YMEC6d6tm323NGnaVIaPGGH2Va1cWYI13uPL7PEpp54NAu/HtNsIBttV/BrWr+/rNDweQiBghGif3nmvajxl7tdfy4kTJwRfNNz1kiRJYlC0024DYgH+aPHjx5datWvLaY1d7N271+MlZtQRpWI6KrVu7VoTuPZYKAo706dPL5WrVBGce8/u3XJAA7jeDMHdSiHd5Z07d5oRJ0/lc2pAvWDBgrJQBQfnCNLuWcaMGSVYxXaPxr7u3r3rqZoJNidLlkx+/fVXKVm8uMcy9p1WbOmYtltNr8OJjVPxrqNxKHhDlSpUkJPqadKcEQgYIfKEA3eu3frDhLcQvgvgqTz3/XMJQMDWb9gg6Ir68nCKlyghCzWe9PDhQykaFCTXr1/3eeHojq7UGxk87u7vvhvB8/PZQIAXCGghwmffVIebh2kXYKcGROvbAqIB/r3wy8t/XWOB4ydMMB5LF42BLdcuJKy4ekgHDx408Rx09/bozQlD9069ZAT/ERuDd730229NMN4vAbp4UQEvRPjCIWfkZ/17WbsGNP8mgBHEnhowh+cyZPBgKViokNTWbiu6dBXKlZP52uWDsKAL3/O993zCgPc0T+NeCPZvUI+rVYsWPuuwQEQCASNESfVO16dvX6mouTO46yFDd/WqVfJfHbo+c+6cGcovXaqUya/p3KWL/EtH1lKlTm2CqEd12LuHZiLbDV/ozjoMjRhC40aNODpih/M3386XL5/M0SA4Ru2Q1JlFR9Tshjhanddes+/yuI2bGILTjx49Mt2xJYsXeyzHnb4JBIQQIT6wYuVKM5oRHsladakxVAxBQeo+7nAzNf8FuS/WCBtGY4L0zomhZcsQ/LbSAMaOGSOfhIzKWMf5/+9NAImd/XW0cOuWLSalA0F1BJkRrEeXzKn11pSDqVOmhPluOK3Lcs8I+L0QBWmwcaHeqcLnyTxD8HRrqybiNVHPxjIkPe7Zty90ntNIHTKG92TZEM1badGypXnJoVqLyj/3f968ec1oKvN+/prP0O+FCHOEMGwLr2b+vHkmz2S/CkwDzSgepDECa9LlIs1l+bd2t+yGvKPWbdqYXeGFCqMvSMZLrd03p/EEe9vcJgESeEbAr4XImpX94MEDaajCE36ekTViBhyf6WjKUPVy7IbRlEVLlphdnlL8EdgspXEla46WvS63SYAEnBPwayE6rPPIMLO8nwapZ371VQQq9uUemusw/qaNG8OUsR+Hy55dl5OwDIFKZCwjKzufuvU0EiCB6BPwWyGyhuWvXLliAs2eEFnzsNBti2ytGms5CNTPpRMorcxda1IkhoAn6YxyGgmQQPQJ+K0QldcU+9lz5sjG776TFs2beyRkzSf65eefpZIO63syrNuDGdywpk2ayBZ9XUCnGKzUoX/M/EbmLY0ESCBmBPxWiLppmn0PTUibOXOm9NMhVk82ctQoaaAzvb0t4mVfqmK0lh81cqSZFpIuXTp5TVft268BaxoJkEDMCPitEP1n0CCz/s369euldcgwux0VlpPYpDkkyBUqpavundekRk+GpU+xBCoM69lgIiMELrJ2PbXBfSRAAt4J+K0QWctFYOJi+AW+SugCV1bSImZs13399UgpWd03FDioM8jz6eRGZNIWKlDgT5mlHumJeYAEAoiA3wqRfWU+iNFqnRl9W1cgLKLLRiDTGoZM2rK63Oi5kIXSPX3uCGhjCojdnE6GtNfhNgmQQOQE/FaIcMnrdBJi+AW67Cic5v8EHz8eum4RJzbaCXKbBP4cAn4tRBn0qQ2Y3oH/dsNja7Bu8mZdIN2JWQupY01ndMk4DcAJNZYhAecE/FqILAx4EkRp/cPaxpjkiLVn0C1zYlg0bb+Wx1y1qDwFwknbLEMCJPCUQEAIUUw+bGsxeG9pADFpn3VJgAREKES2bwHWTcYDB7FIGqyXPm4H6w4hmI21imgkQALuEKAQhXDF+tXHNcMaeUV4VDImyOIRw5gwW0Inv+LpFzQSIAF3CFCIQrjiuVd4/pXdEEfCGkXb9FnmNBIgAfcIUIhsbK1lPbDrxo0bZv3hyB6/Y6vGTRIggRgSoBCFA4i1rdNorIjPpAoHhi9JwEUCFCIX4bJpEiABZwQoRM44sRQJkICLBChELsJl0yRAAs4IUIiccWIpEiABFwlQiFyEy6ZJgAScEaAQOePEUiRAAi4SoBC5CJdNkwAJOCNAIXLGiaVIgARcJEAhchEumyYBEnBGgELkjBNLkQAJuEiAQuQiXDZNAiTgjACFyBknliIBEnCRAIXIRbhsmgRIwBkBCpEzTixFAiTgIgEKkYtw2TQJkIAzAhQiZ5xYigRIwEUCFCIX4bJpEiABZwQoRM44sRQJkICLBChELsJl0yRAAs4IUIiccWIpEiABFwlQiFyEy6ZJgAScEaAQOePEUiRAAi4SoBC5CJdNkwAJOCNAIXLGiaVIgARcJEAhchEumyYBEnBGgELkjBNLkQAJuEiAQuQiXDZNAiTgjACFyBknliIBEnCRAIXIRbhsmgRIwBkBCpEzTixFAiTgIoH/AXczn8peH8GOAAAAAElFTkSuQmCC;" parent="1" vertex="1">
          <mxGeometry x="20" y="598" width="290" height="122" as="geometry" />
        </mxCell>
      </root>
    </mxGraphModel>
  </diagram>
</mxfile>
